<svg width="320" height="96" viewBox="0 0 320 96" fill="none" xmlns="http://www.w3.org/2000/svg">
  <defs>
    <linearGradient id="scinexa-ring" x1="10" y1="10" x2="86" y2="86" gradientUnits="userSpaceOnUse">
      <stop stop-color="#6D5BFF"/>
      <stop offset="1" stop-color="#2A1B78"/>
    </linearGradient>
    <linearGradient id="scinexa-node" x1="24" y1="18" x2="70" y2="70" gradientUnits="userSpaceOnUse">
      <stop stop-color="#A88CFF"/>
      <stop offset="1" stop-color="#5B38F5"/>
    </linearGradient>
  </defs>

  <rect width="320" height="96" rx="24" fill="transparent"/>
  <g transform="translate(8 8)">
    <circle cx="40" cy="40" r="34" fill="url(#scinexa-ring)" opacity="0.13"/>
    <circle cx="40" cy="40" r="27.5" stroke="url(#scinexa-ring)" stroke-width="3"/>
    <path d="M24 49.5C30.5 38.5 39.2 33 50.2 33C56.3 33 62.3 35 68 39.4" stroke="#4330A1" stroke-width="2.5" stroke-linecap="round"/>
    <path d="M18 39.5C23.7 26.6 34 20 49 20C57.6 20 65 22.2 72 28" stroke="#7966FF" stroke-width="2.5" stroke-linecap="round" opacity="0.9"/>
    <path d="M17.5 57.5C25.5 61.4 32.9 63.4 40 63.4C52.8 63.4 63.6 57.8 73 46.7" stroke="#B6A9FF" stroke-width="2.5" stroke-linecap="round" opacity="0.9"/>
    <circle cx="23" cy="39" r="4.5" fill="url(#scinexa-node)"/>
    <circle cx="33.5" cy="26.5" r="4.5" fill="url(#scinexa-node)"/>
    <circle cx="48" cy="21" r="5" fill="url(#scinexa-node)"/>
    <circle cx="63" cy="26.5" r="4.5" fill="url(#scinexa-node)"/>
    <circle cx="71" cy="39.5" r="4.5" fill="url(#scinexa-node)"/>
    <circle cx="63.5" cy="53.5" r="4.5" fill="url(#scinexa-node)"/>
    <circle cx="47" cy="60" r="5" fill="url(#scinexa-node)"/>
    <circle cx="30" cy="55.5" r="4.5" fill="url(#scinexa-node)"/>
    <circle cx="39.5" cy="40" r="7.5" fill="#2E1F80"/>
    <path d="M39.5 33V47" stroke="#FBFBFF" stroke-width="2.5" stroke-linecap="round"/>
    <path d="M32.5 40H46.5" stroke="#FBFBFF" stroke-width="2.5" stroke-linecap="round"/>
  </g>

  <g fill="#221A4B">
    <text x="96" y="42" font-family="'Space Grotesk', 'Segoe UI', sans-serif" font-size="29" font-weight="700" letter-spacing="1.5">SCINEXA</text>
    <text x="96" y="67" font-family="'Manrope', 'Segoe UI', sans-serif" font-size="16" font-weight="700" letter-spacing="5" fill="#5A4AB1">CONFERENCES</text>
  </g>
</svg>
